<?xml version="1.0" standalone="no"?>
<!DOCTYPE svg PUBLIC "-//W3C//DTD SVG 20010904//EN"
 "http://www.w3.org/TR/2001/REC-SVG-20010904/DTD/svg10.dtd">
<svg version="1.0" xmlns="http://www.w3.org/2000/svg"
 width="147.000000pt" height="121.000000pt" viewBox="0 0 147.000000 121.000000"
 preserveAspectRatio="xMidYMid meet">
<metadata>
Created by potrace 1.10, written by Peter Selinger 2001-2011
</metadata>
<g transform="translate(0.000000,121.000000) scale(0.100000,-0.100000)"
fill="#37ff8b" stroke="none">
<path d="M918 1043 c7 -3 16 -2 19 1 4 3 -2 6 -13 5 -11 0 -14 -3 -6 -6z"/>
<path d="M1122 1030 c0 -14 2 -19 5 -12 2 6 2 18 0 25 -3 6 -5 1 -5 -13z"/>
<path d="M418 1033 c12 -2 32 -2 45 0 12 2 2 4 -23 4 -25 0 -35 -2 -22 -4z"/>
<path d="M588 1033 c7 -3 16 -2 19 1 4 3 -2 6 -13 5 -11 0 -14 -3 -6 -6z"/>
<path d="M958 1010 c-2 -8 -60 -11 -190 -11 -135 0 -189 -3 -195 -12 -6 -7 -9
-41 -8 -77 l2 -65 176 3 c116 2 177 -1 177 -8 0 -5 5 -10 11 -10 5 0 7 5 4 10
-3 6 0 10 8 10 10 0 14 -7 11 -22 -5 -23 -4 -23 6 0 5 13 7 35 4 48 -5 18 -2
24 10 24 10 0 13 -6 10 -15 -4 -8 -1 -15 5 -15 10 0 16 23 11 45 -1 6 -2 20
-2 33 0 12 -7 22 -14 22 -8 0 -11 -6 -8 -15 4 -8 1 -15 -6 -15 -6 0 -9 4 -5 9
3 5 1 12 -5 16 -6 4 -10 -14 -10 -49 l0 -56 -186 0 c-161 0 -185 2 -180 15 3
8 2 35 -3 60 l-8 45 181 1 c99 1 186 1 192 0 12 -1 28 28 20 36 -2 2 -6 -1 -8
-7z m27 -90 c3 -5 1 -10 -4 -10 -6 0 -11 5 -11 10 0 6 2 10 4 10 3 0 8 -4 11
-10z"/>
<path d="M210 998 c-25 -9 -26 -20 -2 -17 9 1 44 1 77 0 l60 -1 -3 -365 -2
-365 57 -1 c32 -1 212 -1 401 1 l342 2 1 -44 c1 -24 1 -48 0 -54 -1 -12 28
-28 36 -20 3 3 1 10 -3 17 -4 7 -7 32 -5 56 2 34 -1 43 -13 43 -9 0 -16 5 -16
11 0 6 -20 9 -52 8 -28 -2 -53 1 -55 6 -2 6 18 9 44 9 58 -2 97 11 87 28 -5 7
-9 119 -10 249 -1 130 -4 242 -8 248 -4 6 -27 11 -52 11 -25 0 -44 5 -44 11 0
7 14 10 35 7 24 -3 35 0 35 9 0 10 -17 13 -65 12 -54 -1 -63 -4 -54 -15 8 -10
8 -18 0 -27 -6 -8 -12 -22 -14 -33 -1 -10 -6 -25 -10 -31 -5 -8 -4 -13 2 -13
6 0 11 -9 11 -21 0 -14 -5 -19 -14 -16 -17 7 -26 -21 -26 -83 l0 -45 -172 3
c-95 2 -170 1 -168 -1 6 -6 237 -19 300 -17 53 1 60 10 60 73 0 26 4 47 9 47
6 0 8 -60 7 -147 -2 -81 0 -160 5 -175 4 -16 4 -28 -2 -28 -5 0 -9 -16 -9 -35
0 -28 -4 -35 -20 -35 -24 0 -25 6 -5 26 18 18 21 139 4 150 -6 3 -100 6 -209
5 l-198 -2 -5 43 c-4 24 -4 148 -2 275 3 166 0 235 -8 240 -16 10 -157 13
-157 3 0 -12 29 -16 92 -14 l57 2 -2 -284 -2 -284 215 1 215 1 2 -61 1 -61
-289 0 c-186 0 -289 -4 -289 -10 0 -6 98 -10 275 -10 151 0 275 -3 275 -7 0
-5 -126 -8 -280 -9 l-280 0 0 23 c0 13 4 23 10 23 6 0 11 126 12 334 2 184 1
333 -1 331 -2 -3 -13 1 -25 7 -27 16 -129 26 -156 16z m169 -348 c0 -176 -4
-320 -9 -320 -5 0 -11 -10 -13 -23 -3 -13 -4 -9 -4 10 1 18 5 33 10 33 5 0 7
12 3 28 -10 45 -14 226 -6 299 3 37 3 83 -1 101 -4 17 -3 32 2 32 4 0 8 26 7
58 -1 76 1 102 7 102 2 0 4 -144 4 -320z m661 180 c0 -5 -4 -10 -10 -10 -5 0
-10 5 -10 10 0 6 5 10 10 10 6 0 10 -4 10 -10z m98 -258 c2 -130 5 -245 8
-254 5 -16 -3 -18 -65 -18 l-71 0 -1 123 c0 67 -2 182 -5 255 l-5 132 68 0 68
0 3 -238z m-127 -287 c5 4 9 0 9 -8 0 -7 -7 -14 -15 -14 -10 0 -15 10 -14 31
1 24 3 26 6 8 2 -12 9 -20 14 -17z m146 -67 c-3 -8 -6 -5 -6 6 -1 11 2 17 5
13 3 -3 4 -12 1 -19z"/>
<path d="M1032 640 c0 -14 2 -19 5 -12 2 6 2 18 0 25 -3 6 -5 1 -5 -13z"/>
<path d="M1041 584 c0 -11 3 -14 6 -6 3 7 2 16 -1 19 -3 4 -6 -2 -5 -13z"/>
<path d="M1041 474 c0 -11 3 -14 6 -6 3 7 2 16 -1 19 -3 4 -6 -2 -5 -13z"/>
<path d="M1005 990 c-23 -6 -12 -8 43 -9 42 -1 72 3 72 9 0 11 -70 11 -115 0z"/>
<path d="M1135 990 c-3 -5 1 -10 10 -10 9 0 13 5 10 10 -3 6 -8 10 -10 10 -2
0 -7 -4 -10 -10z"/>
<path d="M188 941 c-2 -17 -1 -28 4 -25 4 3 8 -2 8 -10 0 -20 -27 -10 -33 12
-4 15 -5 15 -6 -1 0 -10 5 -20 12 -23 11 -4 13 -75 12 -367 -1 -200 -5 -368
-8 -374 -7 -11 10 -30 18 -21 10 9 17 838 7 838 -5 0 -12 -13 -14 -29z"/>
<path d="M1132 905 c1 -36 5 -65 9 -65 11 0 17 50 12 91 -9 63 -24 44 -21 -26z"/>
<path d="M1183 930 c0 -25 2 -35 4 -22 2 12 2 32 0 45 -2 12 -4 2 -4 -23z"/>
<path d="M858 943 c7 -3 16 -2 19 1 4 3 -2 6 -13 5 -11 0 -14 -3 -6 -6z"/>
<path d="M268 893 c6 -2 18 -2 25 0 6 3 1 5 -13 5 -14 0 -19 -2 -12 -5z"/>
<path d="M640 830 c0 -6 7 -10 15 -10 8 0 15 2 15 4 0 2 -7 6 -15 10 -8 3 -15
1 -15 -4z"/>
<path d="M738 833 c12 -2 32 -2 45 0 12 2 2 4 -23 4 -25 0 -35 -2 -22 -4z"/>
<path d="M943 735 c-15 -16 -240 -19 -279 -5 -15 6 -24 6 -24 0 0 -6 -3 -9 -7
-9 -22 4 -53 -2 -53 -9 0 -10 299 -15 342 -6 14 3 29 12 32 21 8 21 4 24 -11
8z"/>
<path d="M563 663 c1 -68 8 -90 20 -60 6 18 1 78 -11 107 -8 20 -9 10 -9 -47z"/>
<path d="M891 664 c0 -11 3 -14 6 -6 3 7 2 16 -1 19 -3 4 -6 -2 -5 -13z"/>
<path d="M1172 538 c-1 -64 -5 -125 -8 -135 -5 -15 -4 -15 5 -3 9 12 11 11 12
-10 0 -16 3 -19 6 -10 3 8 11 18 17 22 7 5 4 8 -6 8 -15 0 -18 15 -21 123 l-3
122 -2 -117z"/>
<path d="M568 573 c6 -2 18 -2 25 0 6 3 1 5 -13 5 -14 0 -19 -2 -12 -5z"/>
<path d="M608 553 c7 -3 16 -2 19 1 4 3 -2 6 -13 5 -11 0 -14 -3 -6 -6z"/>
<path d="M233 515 c0 -22 2 -30 4 -17 2 12 2 30 0 40 -3 9 -5 -1 -4 -23z"/>
<path d="M568 473 c7 -3 16 -2 19 1 4 3 -2 6 -13 5 -11 0 -14 -3 -6 -6z"/>
<path d="M890 470 c0 -5 5 -10 11 -10 5 0 7 5 4 10 -3 6 -8 10 -11 10 -2 0 -4
-4 -4 -10z"/>
<path d="M232 395 c0 -16 2 -22 5 -12 2 9 2 23 0 30 -3 6 -5 -1 -5 -18z"/>
<path d="M163 375 c0 -22 2 -30 4 -17 2 12 2 30 0 40 -3 9 -5 -1 -4 -23z"/>
<path d="M538 323 c7 -3 16 -2 19 1 4 3 -2 6 -13 5 -11 0 -14 -3 -6 -6z"/>
<path d="M408 183 c6 -2 18 -2 25 0 6 3 1 5 -13 5 -14 0 -19 -2 -12 -5z"/>
<path d="M818 173 c17 -2 47 -2 65 0 17 2 3 4 -33 4 -36 0 -50 -2 -32 -4z"/>
<path d="M1098 153 c7 -3 16 -2 19 1 4 3 -2 6 -13 5 -11 0 -14 -3 -6 -6z"/>
<path d="M1036 123 c-1 -2 -190 -3 -419 -3 -229 -1 -417 -4 -417 -8 0 -4 122
-6 271 -4 189 2 274 0 284 -8 9 -7 15 -8 20 0 3 5 26 10 51 10 28 0 43 -4 39
-10 -3 -5 -1 -10 4 -10 6 0 11 5 11 11 0 7 42 9 125 7 69 -2 125 0 125 3 0 7
-88 17 -94 12z"/>
<path d="M1141 114 c0 -11 3 -14 6 -6 3 7 2 16 -1 19 -3 4 -6 -2 -5 -13z"/>
<path d="M328 93 c6 -2 18 -2 25 0 6 3 1 5 -13 5 -14 0 -19 -2 -12 -5z"/>
</g>
</svg>
